<svg height='100px' width='100px'  fill="#871cda" xmlns="http://www.w3.org/2000/svg" viewBox="0 0 64 64" x="0px" y="0px"><g><path d="M32,45a8.013,8.013,0,0,0-7.938,7H39.937A8.011,8.011,0,0,0,32,45Z"></path><rect x="29" y="54" width="2" height="6"></rect><rect x="37" y="54" width="3" height="6"></rect><path d="M20,60h2V53a10,10,0,0,1,20,0v7h2V11H20ZM38,15a1,1,0,0,1,2,0v2a1,1,0,0,1-2,0Zm0,7a1,1,0,0,1,2,0v2a1,1,0,0,1-2,0Zm0,7a1,1,0,0,1,2,0v2a1,1,0,0,1-2,0Zm0,7a1,1,0,0,1,2,0v2a1,1,0,0,1-2,0ZM34,15a1,1,0,0,1,2,0v2a1,1,0,0,1-2,0Zm0,7a1,1,0,0,1,2,0v2a1,1,0,0,1-2,0Zm0,7a1,1,0,0,1,2,0v2a1,1,0,0,1-2,0Zm0,7a1,1,0,0,1,2,0v2a1,1,0,0,1-2,0ZM28,15a1,1,0,0,1,2,0v2a1,1,0,0,1-2,0Zm0,7a1,1,0,0,1,2,0v2a1,1,0,0,1-2,0Zm0,7a1,1,0,0,1,2,0v2a1,1,0,0,1-2,0Zm0,7a1,1,0,0,1,2,0v2a1,1,0,0,1-2,0ZM24,15a1,1,0,0,1,2,0v2a1,1,0,0,1-2,0Zm0,7a1,1,0,0,1,2,0v2a1,1,0,0,1-2,0Zm0,7a1,1,0,0,1,2,0v2a1,1,0,0,1-2,0Zm0,7a1,1,0,0,1,2,0v2a1,1,0,0,1-2,0Z"></path><rect x="24" y="54" width="3" height="6"></rect><rect x="33" y="54" width="2" height="6"></rect><polygon points="55.72 16 53 12.601 50.28 16 53 19.399 55.72 16"></polygon><path d="M4,60H18V22H4Zm8-34a1,1,0,0,1,2,0v2a1,1,0,0,1-2,0Zm0,7a1,1,0,0,1,2,0v2a1,1,0,0,1-2,0Zm0,7a1,1,0,0,1,2,0v2a1,1,0,0,1-2,0Zm0,7a1,1,0,0,1,2,0v2a1,1,0,0,1-2,0Zm0,7a1,1,0,0,1,2,0v2a1,1,0,0,1-2,0ZM8,26a1,1,0,0,1,2,0v2a1,1,0,0,1-2,0Zm0,7a1,1,0,0,1,2,0v2a1,1,0,0,1-2,0Zm0,7a1,1,0,0,1,2,0v2a1,1,0,0,1-2,0Zm0,7a1,1,0,0,1,2,0v2a1,1,0,0,1-2,0Zm0,7a1,1,0,0,1,2,0v2a1,1,0,0,1-2,0Z"></path><path d="M46,22V60H60V22Zm6,34a1,1,0,0,1-2,0V54a1,1,0,0,1,2,0Zm0-7a1,1,0,0,1-2,0V47a1,1,0,0,1,2,0Zm0-7a1,1,0,0,1-2,0V40a1,1,0,0,1,2,0Zm0-7a1,1,0,0,1-2,0V33a1,1,0,0,1,2,0Zm0-7a1,1,0,0,1-2,0V26a1,1,0,0,1,2,0Zm4,28a1,1,0,0,1-2,0V54a1,1,0,0,1,2,0Zm0-7a1,1,0,0,1-2,0V47a1,1,0,0,1,2,0Zm0-7a1,1,0,0,1-2,0V40a1,1,0,0,1,2,0Zm0-7a1,1,0,0,1-2,0V33a1,1,0,0,1,2,0Zm0-7a1,1,0,0,1-2,0V26a1,1,0,0,1,2,0Z"></path><path d="M37,5.414,35.707,6.707a1,1,0,0,1-1.414,0L32,4.414,29.707,6.707a1,1,0,0,1-1.414,0L27,5.414V9H37Z"></path><path d="M11,19.585l2.793-2.793a1.121,1.121,0,0,0-1.586-1.585l-.5.5a1,1,0,0,1-1.414,0l-.5-.5a1.121,1.121,0,0,0-1.586,1.585Z"></path></g></svg>