<svg height='100px' width='100px'  fill="#871cda" xmlns="http://www.w3.org/2000/svg" xmlns:xlink="http://www.w3.org/1999/xlink" xml:space="preserve" version="1.1" style="shape-rendering:geometricPrecision;text-rendering:geometricPrecision;image-rendering:optimizeQuality;" viewBox="0 0 846.66 846.66" x="0px" y="0px" fill-rule="evenodd" clip-rule="evenodd"><defs><style type="text/css">
   
    .fil0 {fill:#871cda}
   
  </style></defs><g><path class="fil0" d="M506.92 111.36c64.26,-32.22 140.56,11.84 144.79,83.6 71.75,4.23 115.81,80.52 83.59,144.78 59.69,39.31 59.69,127.87 0,167.18 32.22,64.26 -11.83,140.56 -83.59,144.79 -4.23,71.75 -80.52,115.81 -144.78,83.59 -39.31,59.69 -127.87,59.69 -167.19,0 -64.25,32.22 -140.55,-11.83 -144.78,-83.59 -71.76,-4.23 -115.81,-80.52 -83.59,-144.78 -59.69,-39.32 -59.69,-127.87 -0.01,-167.19 -32.22,-64.25 11.84,-140.56 83.6,-144.78 4.23,-71.76 80.52,-115.81 144.78,-83.59 39.32,-59.69 127.87,-59.69 167.18,-0.01zm-224.22 372.87l68.15 -6.77c7.75,43.01 30.52,66.21 75.3,66.21 29.44,0 67.74,-11.93 67.74,-47.6 0,-37.13 -59.81,-43.97 -87.87,-50.99 -55.21,-13.83 -110.27,-38.08 -110.27,-104.23 0,-53.85 41.77,-86.24 92,-94.29l0 -43.76 71.17 0 0 44.03c56.12,9.16 92.84,44.29 94.9,103.05l-70.07 2.41c-6.24,-37.35 -26.15,-50.26 -62.99,-50.26 -21.33,0 -58.32,6.37 -58.32,34.15 0,29.92 52.77,39.16 74.43,44.31 67.19,15.79 127.1,35.74 127.1,115.18 0,63 -47.82,97.65 -105.05,104.97l0 43.22 -71.17 0 0 -44.13c-64,-10.65 -97.44,-51.57 -105.05,-115.5zm140.63 -369.57c170.47,0 308.67,138.2 308.67,308.67 0,170.47 -138.2,308.67 -308.67,308.67 -170.47,0 -308.67,-138.2 -308.67,-308.67 0,-170.47 138.2,-308.67 308.67,-308.67zm0 26.26c-155.97,0 -282.41,126.44 -282.41,282.41 0,155.98 126.44,282.42 282.41,282.42 155.98,0 282.42,-126.44 282.42,-282.42 0,-155.97 -126.44,-282.41 -282.42,-282.41z"></path></g></svg>