<svg height='100px' width='100px'  fill="#871cda" xmlns="http://www.w3.org/2000/svg" viewBox="0 0 96 96" x="0px" y="0px"><title>web icon 64px</title><path d="M82.81,10.68h0l-.1-.11a8.86,8.86,0,0,0-12.53,0L26.59,54.73,22.21,70.09a3.56,3.56,0,0,0,0,2,3.61,3.61,0,0,0,4.44,2.5l15.05-4.34L85.42,26a9.12,9.12,0,0,0-.07-12.79ZM80.34,20.9,37.92,63.82l-7,2h0L33,58.57l42.3-42.81,0,0a1.76,1.76,0,0,1,2.5,0l2.54,2.57A1.82,1.82,0,0,1,80.34,20.9Z"></path><path d="M76.25,55.28a3.62,3.62,0,0,0-3.59,3.64V73.46a7.23,7.23,0,0,1-7.19,7.27H22.37a7.23,7.23,0,0,1-7.19-7.27V29.83a7.23,7.23,0,0,1,7.19-7.26H36.74a3.64,3.64,0,0,0,0-7.28H22.37A14.46,14.46,0,0,0,8,29.83V73.46A14.45,14.45,0,0,0,22.37,88h43.1A14.45,14.45,0,0,0,79.84,73.46V58.92A3.61,3.61,0,0,0,76.25,55.28Z"></path></svg>