<svg height='100px' width='100px'  fill="#000000" xmlns="http://www.w3.org/2000/svg" xmlns:xlink="http://www.w3.org/1999/xlink" xml:space="preserve" version="1.1" style="shape-rendering:geometricPrecision;text-rendering:geometricPrecision;image-rendering:optimizeQuality;" viewBox="0 0 331 195" x="0px" y="0px" fill-rule="evenodd" clip-rule="evenodd"><defs><style type="text/css">
   
    .fil0 {fill:#000000}
   
  </style></defs><g><path class="fil0" d="M331 97c-107,-127 -217,-132 -331,0 114,132 224,128 331,0zm-165 -59c33,0 59,26 59,59 0,33 -26,60 -59,60 -33,0 -60,-27 -60,-60 0,-33 27,-59 60,-59z"></path><path class="fil0" d="M166 53c24,0 44,20 44,44 0,25 -20,44 -44,44 -25,0 -45,-19 -45,-44 0,-24 20,-44 45,-44zm-25 44c0,5 -8,5 -8,0 0,-18 15,-32 33,-32 4,0 4,7 0,7 -14,0 -25,12 -25,25z"></path></g></svg>