<svg id="SVG_Logo_" data-name="SVG Logo " xmlns="http://www.w3.org/2000/svg" width="1136" height="604" viewBox="0 0 1136 604">
  <defs>
    <style>
      .cls-1 {
        fill: #871cda;
      }

      .cls-1, .cls-2 {
        fill-rule: evenodd;
      }

      .cls-2 {
        fill: #fa8b08;
      }
    </style>
  </defs>
  <path id="_Karma" data-name=" Karma" class="cls-1" d="M663.447,558.362c-0.25-17.25-12.75-28.75-28-31-16-2.5-33.25,5.5-37.25,25.75,20.5,8.5,19.75,43-1.5,44-5.5.25-12-2-18.25-6-33.5-21-78.5-83-111.25-130.75-25-36.25-42-64.5-63-101.75,35.5-34.5,78.75-75,102.5-81H423.2c15.75,14.25,10,28.75,0,42.25-18.5,25.25-53.25,62.5-67.5,76,0-20.25.25-40.75,0.5-61,0.5-28.25,4.25-48.75,15.5-57.25h-93c-5.75-2-12.25-2.75-19.5-2.75-34.25-.25-54.75,13.25-64.25,30-12,21.25-5.75,48.25,13,60,14.5,9.25,37.5,8.25,50.75-2,7.75-6,12-15.5,10.5-27a26.7,26.7,0,0,1-6.25.75c-15.5,0-26.5-12.5-26.5-27.75a28.273,28.273,0,0,1,28.5-28.25c9,0,16.5,3.25,21.75,9.5,9,11,8,31,8.25,44.75,0.5,34.25.5,68.25,0,102.25,0,22-2.5,45.5-9.5,66-10.25,29.25-30.25,51.75-68.5,52.5-37.25.5-59.5-26.25-60.5-62.25-0.75-31.5,16.25-63,47.5-62.75,15.5,0.25,28,11.75,28,28.5,0,15.75-11.5,28.5-27.5,28.5a25.758,25.758,0,0,1-11.5-2.5,21.972,21.972,0,0,0-3.5,11c0.75,19.5,15.5,31,36.75,30.25,24.5-.5,44.75-18.75,44.5-43.75-0.5-37-32.75-56.75-65.25-56.5-45.75.25-70.5,32.75-71.25,65.75-1.25,52.75,46.75,72.5,92,71,47.5-1.5,83.75-16.25,105.75-45.25,20.75-27.5,24.25-59.75,24-92.75,0-6.5-.25-13-0.25-19.5q2.625-2.25,6-5.25c18.25,32,40.25,67.25,59.75,93.5,46.5,62.75,106.5,110.75,183,111.25C632.7,604.862,664.2,591.362,663.447,558.362Zm-59.9-81.249c-0.2-18.8.2-41,.6-56.4,0.4-21.8-21.4-31.4-55.4-31.6-34.4-.4-47,15-47.4,29.8-0.2,11.8,9.6,23,23.4,23,18,0,25.6-12.4,26.2-23.8,0.6-10.4-5-19.8-15.6-18,4.4,2.2,4.2,15.2-6,15-4.2,0-8.6-2.8-8.6-8.2,0.2-7.4,6.2-14,18.4-14.4,16.2-.4,22,14.6,20.8,28.4,0,1.8-.4,6.4-0.8,12.8-17,15.8-65.6,19-63.8,56.8,0.6,11.4,11.2,21.8,30,21.8,15.2,0,31-9.2,33.4-16.8a12.3,12.3,0,0,0,.2,2.6c1,9.6,10.6,12.4,23.6,13.2,9,0.4,19.6-.2,29.8-0.2C604.943,505.512,603.943,492.912,603.543,477.113Zm-46.6,7.2c-0.2,6.2-2,13.8-9,14-9.6.4-10.8-13.4-10.8-20.4,0-18.6,3.8-28.6,21-38Zm189.6-153.6c-26.6,1.4-41.2,25.6-50.8,48.4-6,13.8-10.4,28.4-13.6,40l-1-.2c0.4-7.8.8-19.8,1-29.8-20.8,3.2-45,8.2-64.6,11.8,9.2,4.4,12,28.8,11.8,41.8-0.8,30.2-3.8,62.8-9.4,68.4h67.6c-7-8.8-7.2-35.2-7-66.4,0.6-3.8,1.6-9.2,2.8-14.6a357.562,357.562,0,0,1,17.8-47.6c3.8-8.2,13-27.6,24.4-28.4,6-.2,11,3.6,11,10.2a13.828,13.828,0,0,1-3.6,9c4.8,8.4,11.8,11.4,19,11.2,16.8-.6,26.4-12.8,26.4-26C778.14,340.515,763.74,329.915,746.54,330.715Zm184.6,113.8c0-30.4-5.4-55.8-41.8-55.6-12.8.2-31.4,5.2-39.6,20.2-6.2-12.4-16.2-20.2-38.2-20.2-12.2.2-27,4.4-34.6,14.6,0-4.4.2-9.2,0.4-14.6-20.8,3.4-45,8.4-64.6,12,9.2,4.4,12,28.6,11.8,41.8-0.8,30.2-3.8,62.8-9.4,68.4h67.6c-7-9-7.2-36-6.8-67.6,0-10.6.2-18.2,0.4-26.2,2.4-7.2,6.6-15.4,14.8-15.6,12.8-.4,13,14.6,13.4,24.4,0.4,7.6.4,17.2,0.4,29.4,0,29.2-3.6,50.6-8.6,55.6l46-.2,19.8,0.2c-5.2-6.6-8.8-33.6-8.8-66.6,0-6.2-.8-20.6-0.8-27.2,3-6.8,8.6-15.8,16.4-15.6,12.4,0.2,13,14.6,13.6,24.4,0.2,7.6.2,17.2,0.2,29.4,0,29.2-3.4,50.6-8.4,55.6l45.8-.2,19.8,0.2C934.737,504.512,931.138,477.513,931.138,444.513Zm139.4,78a90.664,90.664,0,0,0-16,1.8c-0.6-13.8-.4-28-0.6-42,0-20.6.6-41.4,1-61.6,0.4-21.8-21.4-31.4-55.6-31.6-34.4-.4-47,15-47.2,29.8-0.4,11.8,9.6,23,23.4,23,17.8,0,25.6-12.4,26.2-23.8,0.6-10.4-5-19.8-15.6-18,4.4,2.2,4,15.2-6,15-4.2,0-8.6-2.8-8.6-8.2,0-7.4,6.2-14,18.4-14.4,16.2-.4,21.8,14.6,20.8,28.4l-0.8,12.8c-17,15.8-65.6,19-63.8,56.8,0.6,11.4,11.2,21.8,30,21.8,15.2,0,30.8-9,33.2-16.8,0,12.2.2,25.2,1.6,37.4-38,13.8-85.8,64.4-120.6,65.2-10.6.2-17.8-5.8-17.8-16.8,0-8,4-16,13-18.8-0.4-7.4-2.8-13-6.6-16.8-4.8-5.2-11.8-7.6-19.4-7.6-14,0-27.2,9.4-27.2,26.6,0,16.4,9.6,26.4,24,32.8a74.047,74.047,0,0,0,31.4,5.6c42.6-1.6,82.6-49.8,123.8-64.8l0.4,2.8c4.8,29.2,20,48.4,65.6,47.8C1151.73,587.711,1147.33,520.512,1070.54,522.512Zm6.8,61c-17.8,0-21.6-31.4-22.8-53.6a46.3,46.3,0,0,1,14.4-2C1108.34,528.512,1103.34,583.511,1077.34,583.511Zm-69.6-99.2c-0.2,6.2-2,13.8-9,14-9.6.4-10.8-13.4-10.8-20.4,0-18.6,3.8-28.6,21-38Z"/>
  <path id="Slot" class="cls-2" d="M95.139,57.909c-10-7.5-14.75-17-14.75-26,0.25-14,11.5-26.75,31.5-27.5a56.113,56.113,0,0,1,26.75,6c26.25,13,50.75,37.5,58,67l-3.5-77.5c-14.5,14.25-53.75-2-74-2-24.5,0-35.25,4.25-50.25,15.25-25.5,18.75-36,58.5-14,87.5,23,30.25,72.75,54.75,92,76.25,13.5,15,20.5,36.75,20,58.25-1,46.75-35.5,71.25-70.25,72.25-51,1.5-73.25-38.25-72.75-76.25,0.25-34.25,18.75-67.25,51-68.25,19.25-.5,34.5,12.75,34.5,33.5,0,18.5-13.75,33.25-30.5,33.25a29.036,29.036,0,0,1-17.5-6c-3,4-5.75,14-5.75,19.75,0,34.25,41,44.25,68,29.75,34.5-18.75,38.25-75.25-1-103.5-12.25-9-28.5-13.25-44.5-13-49.25.5-77.5,37.25-78,75.5-0.5,42.25,32.75,86,109.25,84.5,59-1.25,121-39,121-101.5C230.389,129.159,146.889,95.659,95.139,57.909Zm142,175.75h82.75c-9.5-16.25-11-61.75-10-114.5,0.75-50,3.5-101,4.25-119.75-25.25,5-59.25,11.5-81.75,15,21,20.25,17,49.5,17,102.25C249.388,157.659,246.138,224.659,237.138,233.659Zm171-153.5c-46-2-79.25,34.75-79.25,80.25,0,38,24.5,75.25,76.5,75.25,54,0,79.75-37.75,79.75-76.25C484.884,120.659,458.384,81.159,408.134,80.159Zm-1.5,151.25c-22.25.5-23.25-63.25-23-77.5a38.156,38.156,0,0,1-7.5.75c-29.5,0-36-33.25-19.25-52.75-12.5,19.75-4.25,47.25,22,47.25,13.75,0,26-8,27-25.25-22.5-5.25-16.25-39.25,2-39.5,14.5,0,22,33.75,22,73.5S422.134,231.159,406.634,231.409Zm209,14.5c-13.25.5-26.25,8-30.75,22-2.5,7-3,16.75,1,23.25a13.026,13.026,0,0,1,10.25-5.25c8.75-.25,13.75,6.75,13.75,14.25,0.25,8.25-5.25,16.75-17.25,16.75-30,0-31.25-52.25-32-70.5-1.75-41.5-1.25-85-1-127.5V88.659h23.5v-6h-23.25V24.909h-6c-12,17.5-38.25,57.75-71.5,57.75v6h20c0,8.25-.25,21.25-0.25,29.5-0.25,29-.75,58-0.75,87,0,77.5,21.75,118.75,98.75,117.5,35.75-.75,51.75-22.25,51.75-42.5C651.882,261.909,638.882,244.659,615.632,245.909Z"/>
</svg>
