<?xml version="1.0" encoding="utf-8"?>
<!-- Generator: Adobe Illustrator 23.0.3, SVG Export Plug-In . SVG Version: 6.00 Build 0)  -->
<svg version="1.1" id="Layer_1" xmlns="http://www.w3.org/2000/svg" xmlns:xlink="http://www.w3.org/1999/xlink" x="0px" y="0px"
	 viewBox="0 0 100 100" style="enable-background:new 0 0 100 100;" xml:space="preserve">
<style type="text/css">
	.st0{fill:#26B813;}
	.st1{fill:#FFFFFF;}
	.st2{fill:#871CDA;}
</style>
<g>
	<circle class="st0" cx="77.6" cy="76.6" r="19.6"/>
	<path class="st1" d="M81.4,70.9c0,0.9,0.6,1.5,1.5,1.5c0.9,0,1.5-0.6,1.5-1.5c0-3.3-2.1-6.1-5.2-6.8v-1.8c0-0.9-0.6-1.5-1.5-1.5
		s-1.5,0.6-1.5,1.5v1.8c-3.2,0.6-5.5,3.5-5.5,6.5c-0.2,3.8,2.9,6.8,6.7,7c5.5,0.5,4.7,7.7,0,7.7c-2.1,0-3.8-1.8-3.8-3.9
		c0-0.9-0.6-1.5-1.5-1.5s-1.5,0.6-1.5,1.5c0,3.2,2.1,6.1,5.2,6.8V90c0,0.9,0.6,1.5,1.5,1.5l0,0c0.8,0,1.5-0.6,1.5-1.5v-1.8
		c7.9-1.7,6.8-13.5-1.2-13.6c-2.1,0-3.8-1.8-3.8-3.9C73.8,65.8,81.4,65.6,81.4,70.9z"/>
	<path class="st2" d="M93,43.9c3,0,5.5-2.4,5.5-5.5v-9.7c0-3-2.4-5.3-5.5-5.3H60.5c1.4-0.9,2.7-2.1,3.8-3.5
		c3.5-4.5,7.3-12.9,2.9-16.2c-3.5-2.7-10,0.2-15,6.8c-0.9,1.1-1.5,2.3-2.1,3.6C47.4,8,38,0,32.9,3.9c-5.3,4.1,0.9,15.9,6.7,19.7H7
		c-3-0.3-5.5,2.1-5.5,5.2v9.7c0,3,2.4,5.5,5.5,5.5h0.5v45.3c0,4.5,3.6,8.2,8.2,8.2h62c11.5,0,20.9-9.5,20.9-21.2
		c0-5.8-2.3-10.9-5.9-14.7V43.9H93z M95.5,28.8v9.7c0,1.4-1.1,2.4-2.4,2.4c-12.6,0-22.9,0-41.5,0c0-2.9,0-12.9,0-12.3l4.7,4.7
		c0.6,0.6,1.5,0.6,2.1,0s0.6-1.5,0-2.1l-4.8-4.8h39.4C94.4,26.4,95.5,27.4,95.5,28.8z M54.4,12.3c2.3-2.9,8.3-8.2,10.8-6.2
		c2.6,2-1.1,9.1-3.3,12c-2.4,3.2-6.4,4.7-8.9,5.3h-1.4C51.7,21.4,51.2,16.4,54.4,12.3z M34.7,6.1c2.4-2,13.2,3.9,13.8,15.3
		c0,0.8,0,1.5,0,2.1h-1.4C35.8,20.5,32.1,8,34.7,6.1z M4.5,38.5v-9.7c0-1.4,1.1-2.3,2.4-2.3h39.4l-4.8,4.8c-0.6,0.6-0.6,1.5,0,2.1
		s1.5,0.6,2.1,0l4.7-4.7c0,0.2,0,13.2,0,12.3c-1.4,0-32.4,0-41.5,0C5.6,40.9,4.5,39.8,4.5,38.5z M10.5,89.2V43.9h38v50.5h-33
		C12.7,94.4,10.5,92.1,10.5,89.2z M51.5,94.4V43.9h38v14.8c-3.5-2.4-7.6-3.9-12.1-3.9c-11.5,0-20.9,9.5-20.9,21.4
		c0,7.7,4.1,14.5,10.3,18.2C66.8,94.4,51.5,94.4,51.5,94.4z M77.6,94.4c-9.8,0-17.9-8.2-17.9-18.2s8-18.3,17.9-18.3
		s17.9,8.2,17.9,18.3C95.5,86.2,87.4,94.4,77.6,94.4z"/>
</g>
</svg>
