<svg height='100px' width='100px'  fill="#871cda" xmlns="http://www.w3.org/2000/svg" data-name="Layer 1" viewBox="0 0 100 100" x="0px" y="0px"><title>collection 1</title><path d="M21.76563,85.04492A45.09151,45.09151,0,0,0,50,95a44.50351,44.50351,0,0,0,28.21191-9.94336A45.39551,45.39551,0,0,0,83.2666,80.2998a44.96056,44.96056,0,1,0-61.501,4.74512Zm28.233-64.28662A16.89319,16.89319,0,1,1,33.10553,37.65137,16.89311,16.89311,0,0,1,49.99866,20.7583ZM33.53821,52.05713a21.83122,21.83122,0,0,0,32.92,0c8.86,3.48,15.41,9.66992,17.55,17.04a39.48539,39.48539,0,0,1-9.56,11.29,39.01413,39.01413,0,0,1-48.92-.02,38.17276,38.17276,0,0,1-4.36-4.11011,38.81652,38.81652,0,0,1-5.18-7.15991C18.12817,61.72705,24.67822,55.5271,33.53821,52.05713Z"></path></svg>