<svg height='100px' width='100px'  fill="#871cda" xmlns="http://www.w3.org/2000/svg" xmlns:xlink="http://www.w3.org/1999/xlink" version="1.1" x="0px" y="0px" viewBox="0 0 1024 1024" style="enable-background:new 0 0 1024 1024;" xml:space="preserve"><g><g><g><path d="M454.3,124.7c17.2,0,34.4,1.2,51.5,3.5c-4.4-0.6-8.9-1.2-13.3-1.8c33.1,4.6,65.4,13.4,96.2,26.3     c-4-1.7-8-3.4-11.9-5c30.2,12.8,58.5,29.4,84.5,49.5c-3.4-2.6-6.7-5.2-10.1-7.8c25.4,19.8,48.3,42.6,68.1,68     c-2.6-3.4-5.2-6.7-7.8-10.1c20.1,26,36.8,54.5,49.6,84.8c-1.7-4-3.4-8-5-11.9c13,31.1,21.9,63.7,26.4,97     c-0.6-4.4-1.2-8.9-1.8-13.3c4.4,33.4,4.4,67.3,0,100.8c0.6-4.4,1.2-8.9,1.8-13.3c-4.5,33.4-13.4,66-26.4,97c1.7-4,3.4-8,5-11.9     c-12.9,30.3-29.5,58.8-49.6,84.8c2.6-3.4,5.2-6.7,7.8-10.1c-19.8,25.4-42.6,48.3-68.1,68c3.4-2.6,6.7-5.2,10.1-7.8     c-26,20-54.3,36.6-84.5,49.5c4-1.7,8-3.4,11.9-5c-30.8,12.9-63.1,21.8-96.2,26.3c4.4-0.6,8.9-1.2,13.3-1.8     c-34.1,4.5-68.7,4.6-102.9,0c4.4,0.6,8.9,1.2,13.3,1.8c-33-4.5-65.3-13.3-96-26.2c4,1.7,8,3.4,11.9,5     c-30-12.7-58.2-29.2-84.1-49.1c3.4,2.6,6.7,5.2,10.1,7.8c-25.9-20.1-49.2-43.4-69.3-69.3c2.6,3.4,5.2,6.7,7.8,10.1     c-19.8-25.8-36.3-54.1-49.1-84.1c1.7,4,3.4,8,5,11.9c-12.9-30.7-21.7-63-26.2-96c0.6,4.4,1.2,8.9,1.8,13.3     c-4.6-34.1-4.6-68.7,0-102.8c-0.6,4.4-1.2,8.9-1.8,13.3c4.5-33,13.3-65.3,26.2-96c-1.7,4-3.4,8-5,11.9     c12.7-30,29.2-58.2,49.1-84.1c-2.6,3.4-5.2,6.7-7.8,10.1c20.1-25.9,43.4-49.2,69.3-69.3c-3.4,2.6-6.7,5.2-10.1,7.8     c25.8-19.8,54.1-36.3,84.1-49.1c-4,1.7-8,3.4-11.9,5c30.7-12.9,63-21.7,96-26.2c-4.4,0.6-8.9,1.2-13.3,1.8     C419.9,125.9,437.1,124.7,454.3,124.7c12.8,0,26.3-5.6,35.4-14.6c8.7-8.7,15.2-22.9,14.6-35.4c-0.6-12.9-4.8-26.3-14.6-35.4     c-9.8-9-21.8-14.7-35.4-14.6c-82,0.1-164.5,23.8-233.2,68.8C154.6,137.1,98.9,198.8,65.8,271.3c-17.1,37.4-29.9,76.2-35.6,117     c-3.2,22.9-5.6,45.7-5.4,68.9c0.2,23,2.7,45.9,6.2,68.7c12.3,80.1,50.4,155.2,103.9,215.6c52.9,59.6,123.9,103.6,200.3,125.8     c40.4,11.7,83.4,17.4,125.5,16.7c51.5-0.8,103.8-10.6,151.5-30.2c24.3-10,47.8-21,70-35.1c19.8-12.5,38.7-26.9,56.4-42.2     c32.5-28.2,60.5-62.3,83-98.9c46.7-76.3,69-169.2,60.8-258.4c-2.3-24.4-5.9-48.7-12-72.5c-6-23.3-14.5-45.5-24-67.6     c-17.3-40.1-41.8-76.7-70.5-109.5c-28.4-32.6-62.8-60.7-99.7-83.1c-22.7-13.8-47-24.9-71.8-34.4c-22-8.5-44.7-14.9-67.9-19.1     c-27-4.9-54.6-7.9-82.1-8c-12.8,0-26.3,5.6-35.4,14.6c-8.7,8.7-15.2,22.9-14.6,35.4c0.6,12.9,4.8,26.3,14.6,35.4     C428.7,119.1,440.7,124.7,454.3,124.7z"></path></g></g><g><g><path d="M687.3,758c25.6,25.6,51.2,51.2,76.8,76.8c40.6,40.6,81.3,81.3,121.9,121.9c9.3,9.3,18.6,18.6,27.9,27.9     c9.1,9.1,22.5,14.6,35.4,14.6c12.3,0,26.9-5.4,35.4-14.6c8.7-9.5,15.2-22,14.6-35.4c-0.6-13.3-5.1-25.8-14.6-35.4     c-25.6-25.6-51.2-51.2-76.8-76.8c-40.6-40.6-81.3-81.3-121.9-121.9c-9.3-9.3-18.6-18.6-27.9-27.9c-9.1-9.1-22.5-14.6-35.4-14.6     c-12.3,0-26.9,5.4-35.4,14.6c-8.7,9.5-15.2,22-14.6,35.4C673.3,735.9,677.7,748.5,687.3,758L687.3,758z"></path></g></g></g></svg>