<svg height='100px' width='100px'  fill="#871cda" xmlns="http://www.w3.org/2000/svg" viewBox="0 0 64 64" x="0px" y="0px"><g><path d="M53,7a1,1,0,0,0-.628-.929l-.716-.286a52.931,52.931,0,0,0-39.312,0l-.716.286A1,1,0,0,0,11,7V61a1,1,0,0,0,1,1H52a1,1,0,0,0,1-1V42h6a1,1,0,0,0,1-1V35a1,1,0,0,0-1-1H58V24.858a4,4,0,1,0-2,0V34H53V7Zm2,14a2,2,0,1,1,2,2A2,2,0,0,1,55,21ZM36,14V34H28V14Zm10,0V34H38V14ZM26,34H18V14h8ZM16,34H13V14h3ZM13,48H51v2H13Zm38-2H13V36H51Zm0-12H48V14h3ZM13,7.677l.087-.034a50.916,50.916,0,0,1,37.826,0L51,7.677V12H13ZM26,60V56H38v4Zm25,0H40V55a1,1,0,0,0-1-1H25a1,1,0,0,0-1,1v5H13V52H51Zm7-20H53V36h5Z"></path><path d="M30,23a1,1,0,0,0,1-1h1.613l-1.562,4.684a1,1,0,0,0,1.9.632l2-6A1,1,0,0,0,34,20H30a1,1,0,0,0-1,1v1A1,1,0,0,0,30,23Z"></path><path d="M40,23a1,1,0,0,0,1-1h1.613l-1.562,4.684a1,1,0,0,0,1.9.632l2-6A1,1,0,0,0,44,20H40a1,1,0,0,0-1,1v1A1,1,0,0,0,40,23Z"></path><path d="M20,23a1,1,0,0,0,1-1h1.613l-1.562,4.684a1,1,0,0,0,1.9.632l2-6A1,1,0,0,0,24,20H20a1,1,0,0,0-1,1v1A1,1,0,0,0,20,23Z"></path><path d="M25,38H19a1,1,0,0,0-1,1v4a1,1,0,0,0,1,1h6a1,1,0,0,0,1-1V39A1,1,0,0,0,25,38Zm-1,4H20V40h4Z"></path><path d="M35,38H29a1,1,0,0,0-1,1v4a1,1,0,0,0,1,1h6a1,1,0,0,0,1-1V39A1,1,0,0,0,35,38Zm-1,4H30V40h4Z"></path><path d="M45,38H39a1,1,0,0,0-1,1v4a1,1,0,0,0,1,1h6a1,1,0,0,0,1-1V39A1,1,0,0,0,45,38Zm-1,4H40V40h4Z"></path><path d="M16.71,8.29a1.576,1.576,0,0,0-.15-.12.757.757,0,0,0-.18-.09.636.636,0,0,0-.18-.06.956.956,0,0,0-.58.06.9.9,0,0,0-.54.54A1,1,0,0,0,15,9a.99.99,0,0,0,1,1,1.5,1.5,0,0,0,.2-.02.636.636,0,0,0,.18-.06.757.757,0,0,0,.18-.09l.15-.12.12-.15a.757.757,0,0,0,.09-.18.636.636,0,0,0,.06-.18A1.5,1.5,0,0,0,17,9,1.052,1.052,0,0,0,16.71,8.29Z"></path><path d="M19.08,9.38a.757.757,0,0,0,.09.18l.12.15A1,1,0,0,0,21,9a1,1,0,0,0-.08-.38,1.032,1.032,0,0,0-.21-.33,1,1,0,0,0-1.09-.21,1.032,1.032,0,0,0-.33.21A1.052,1.052,0,0,0,19,9a1.5,1.5,0,0,0,.02.2A.636.636,0,0,0,19.08,9.38Z"></path><path d="M24,10a1.052,1.052,0,0,0,.71-.29l.12-.15a.757.757,0,0,0,.09-.18.636.636,0,0,0,.06-.18A1.5,1.5,0,0,0,25,9a1.052,1.052,0,0,0-.29-.71,1.032,1.032,0,0,0-.33-.21,1.021,1.021,0,0,0-1.09.21,1.032,1.032,0,0,0-.21.33A1,1,0,0,0,23,9a.99.99,0,0,0,1,1Z"></path><path d="M27.44,9.83a.757.757,0,0,0,.18.09.636.636,0,0,0,.18.06A1.5,1.5,0,0,0,28,10a.99.99,0,0,0,1-1,1,1,0,0,0-.08-.38.9.9,0,0,0-.54-.54.956.956,0,0,0-.58-.06.636.636,0,0,0-.18.06.757.757,0,0,0-.18.09,1.576,1.576,0,0,0-.15.12,1.155,1.155,0,0,0-.21.33A1,1,0,0,0,27,9a1.052,1.052,0,0,0,.29.71Z"></path><path d="M36,10a1.5,1.5,0,0,0,.2-.02.636.636,0,0,0,.18-.06.757.757,0,0,0,.18-.09l.15-.12.12-.15a.757.757,0,0,0,.09-.18.636.636,0,0,0,.06-.18A1.5,1.5,0,0,0,37,9a1.052,1.052,0,0,0-.29-.71,1.017,1.017,0,0,0-1.09-.21.9.9,0,0,0-.54.54A1,1,0,0,0,35,9a.99.99,0,0,0,1,1Z"></path><path d="M32,10a.99.99,0,0,0,1-1,1,1,0,0,0-.08-.38,1.032,1.032,0,0,0-.21-.33,1.021,1.021,0,0,0-1.09-.21,1.032,1.032,0,0,0-.33.21,1.155,1.155,0,0,0-.21.33A1,1,0,0,0,31,9a.99.99,0,0,0,1,1Z"></path><path d="M39.08,9.38a.757.757,0,0,0,.09.18l.12.15.15.12a.757.757,0,0,0,.18.09.6.6,0,0,0,.19.06A1.225,1.225,0,0,0,40,10a.99.99,0,0,0,1-1,1,1,0,0,0-.08-.38.9.9,0,0,0-.54-.54.932.932,0,0,0-.57-.06.6.6,0,0,0-.19.06.757.757,0,0,0-.18.09,1.576,1.576,0,0,0-.15.12A1.052,1.052,0,0,0,39,9a1.5,1.5,0,0,0,.02.2A.636.636,0,0,0,39.08,9.38Z"></path><path d="M44,10a1.052,1.052,0,0,0,.71-.29l.12-.15a.757.757,0,0,0,.09-.18.636.636,0,0,0,.06-.18A1.5,1.5,0,0,0,45,9a1.052,1.052,0,0,0-.29-.71,1.032,1.032,0,0,0-.33-.21,1.021,1.021,0,0,0-1.09.21,1.032,1.032,0,0,0-.21.33A1,1,0,0,0,43,9a.99.99,0,0,0,1,1Z"></path><path d="M47.44,9.83a.757.757,0,0,0,.18.09.636.636,0,0,0,.18.06A1.5,1.5,0,0,0,48,10a.838.838,0,0,0,.38-.08,1.155,1.155,0,0,0,.33-.21l.12-.15a.757.757,0,0,0,.09-.18.636.636,0,0,0,.06-.18A1.5,1.5,0,0,0,49,9a1.052,1.052,0,0,0-.29-.71,1.155,1.155,0,0,0-.33-.21.956.956,0,0,0-.58-.06.636.636,0,0,0-.18.06.757.757,0,0,0-.18.09,1.576,1.576,0,0,0-.15.12,1.155,1.155,0,0,0-.21.33A1,1,0,0,0,47,9a1.052,1.052,0,0,0,.29.71Z"></path></g></svg>